
<svg width="800" height="600" xmlns="http://www.w3.org/2000/svg">
  <!-- Sky background -->
  <rect width="800" height="520" fill="#E0F7FA" />
  
  <!-- Ground -->
  <rect y="520" width="800" height="80" fill="#8B4513" />
  
  <!-- Roots -->
  <path d="M370,520 C350,540 320,560 300,570" stroke="#5D4037" stroke-width="3" fill="none" />
  <path d="M400,520 C420,540 450,560 470,570" stroke="#5D4037" stroke-width="3" fill="none" />
  <path d="M380,520 C380,540 390,560 400,580" stroke="#5D4037" stroke-width="3" fill="none" />
  <path d="M390,520 C390,540 370,560 350,580" stroke="#5D4037" stroke-width="3" fill="none" />
  <path d="M410,520 C410,550 400,570 380,590" stroke="#5D4037" stroke-width="3" fill="none" />
  
  <!-- Trunk -->
  <path d="M370,520 Q370,400 380,200 Q390,400 410,520" fill="#795548" />
  
  <!-- Phi symbol on trunk -->
  <circle cx="390" cy="400" r="20" fill="rgba(255,255,255,0.2)" />
  <text x="390" y="408" fill="white" font-size="24" text-anchor="middle" font-family="serif">Φ</text>
  
  <!-- Factual branch (left) -->
  <path d="M380,220 L280,150" stroke="#795548" stroke-width="8" stroke-linecap="round" />
  
  <!-- Ethical branch (right) -->
  <path d="M380,240 L480,180" stroke="#795548" stroke-width="7" stroke-linecap="round" />
  
  <!-- Conceptual branch (top) -->
  <path d="M380,200 L390,100" stroke="#795548" stroke-width="7" stroke-linecap="round" />
  
  <!-- Phenomenological branch (right middle) -->
  <path d="M380,260 L450,220" stroke="#795548" stroke-width="6" stroke-linecap="round" />
  
  <!-- Factual leaves (green) -->
  <ellipse cx="280" cy="150" rx="25" ry="40" fill="#2ecc71" transform="rotate(-45 280 150)" />
  <ellipse cx="270" cy="140" rx="20" ry="35" fill="#27ae60" transform="rotate(-35 270 140)" />
  <ellipse cx="260" cy="155" rx="22" ry="30" fill="#2ecc71" transform="rotate(-55 260 155)" />
  
  <!-- Ethical leaves (blue) -->
  <ellipse cx="480" cy="180" rx="25" ry="40" fill="#3498db" transform="rotate(20 480 180)" />
  <ellipse cx="490" cy="170" rx="20" ry="30" fill="#2980b9" transform="rotate(30 490 170)" />
  <ellipse cx="470" cy="165" rx="18" ry="28" fill="#3498db" transform="rotate(15 470 165)" />
  
  <!-- Conceptual leaves (purple) -->
  <ellipse cx="390" cy="100" rx="22" ry="35" fill="#9b59b6" transform="rotate(0 390 100)" />
  <ellipse cx="380" cy="90" rx="18" ry="30" fill="#8e44ad" transform="rotate(-10 380 90)" />
  <ellipse cx="400" cy="85" rx="20" ry="32" fill="#9b59b6" transform="rotate(10 400 85)" />
  
  <!-- Phenomenological leaves (yellow) -->
  <ellipse cx="450" cy="220" rx="20" ry="32" fill="#f1c40f" transform="rotate(60 450 220)" />
  <ellipse cx="460" cy="210" rx="15" ry="25" fill="#f39c12" transform="rotate(50 460 210)" />
  
  <!-- Meta flower (upper right) -->
  <circle cx="460" cy="150" r="15" fill="rgba(155,89,182,0.3)" />
  <circle cx="460" cy="150" r="6" fill="rgba(255,255,255,0.9)" />
  <circle cx="460" cy="150" r="4" fill="rgba(255,223,0,0.9)" />
  <ellipse cx="470" cy="140" rx="5" ry="10" fill="#9b59b6" transform="rotate(45 470 140)" />
  <ellipse cx="475" cy="155" rx="5" ry="10" fill="#9b59b6" transform="rotate(90 475 155)" />
  <ellipse cx="460" cy="165" rx="5" ry="10" fill="#9b59b6" transform="rotate(135 460 165)" />
  <ellipse cx="445" cy="155" rx="5" ry="10" fill="#9b59b6" transform="rotate(180 445 155)" />
  <ellipse cx="450" cy="140" rx="5" ry="10" fill="#9b59b6" transform="rotate(225 450 140)" />
  <ellipse cx="470" cy="160" rx="5" ry="10" fill="#9b59b6" transform="rotate(270 470 160)" />
  
  <!-- Fallen leaves -->
  <ellipse cx="320" cy="525" rx="10" ry="15" fill="rgba(46,204,113,0.5)" transform="rotate(30 320 525)" />
  <ellipse cx="450" cy="525" rx="8" ry="12" fill="rgba(52,152,219,0.5)" transform="rotate(-20 450 525)" />
  <ellipse cx="280" cy="530" rx="7" ry="11" fill="rgba(155,89,182,0.5)" transform="rotate(120 280 530)" />
  <ellipse cx="500" cy="535" rx="9" ry="14" fill="rgba(241,196,15,0.5)" transform="rotate(60 500 535)" />
  
  <!-- Wind indicator -->
  <rect x="20" y="50" width="760" height="30" rx="5" fill="rgba(255,255,255,0.7)" stroke="rgba(0,0,0,0.2)" />
  <rect x="30" y="55" width="350" height="20" rx="3" fill="rgba(135,206,235,0.5)" />
  <text x="40" y="40" fill="rgba(0,0,0,0.7)" font-size="12">Wind of Skepticism</text>
  <path d="M380,65 L400,65 L390,75 Z" fill="rgba(0,0,0,0.5)" />
  
  <!-- Growth stage indicator -->
  <rect x="670" y="20" width="110" height="25" rx="5" fill="rgba(255,255,255,0.7)" stroke="#16a085" stroke-width="2" />
  <text x="725" y="36" fill="#16a085" font-size="14" text-anchor="middle">Mature Tree</text>
</svg>
    